<svg width="20" height="21" viewBox="0 0 20 21" fill="none" xmlns="http://www.w3.org/2000/svg">
<path d="M13.1927 1.03069C12.5778 1.13236 11.9041 1.41002 11.3871 1.77763C11.1051 1.97707 11.1521 1.93014 5.27301 7.73358C3.04437 9.93138 1.20742 11.7694 1.18783 11.8124C1.17217 11.8554 1.10167 11.9728 1.02725 12.0705C0.283064 13.1029 -0.104695 14.5303 0.0245581 15.7661C0.13031 16.8142 0.4084 17.608 0.944995 18.4097C1.80276 19.6963 3.05221 20.5332 4.63458 20.8813C5.19859 21.0025 6.29528 21.0025 6.87888 20.8774C7.62698 20.717 8.32024 20.4355 8.92342 20.0444C9.10359 19.9271 9.27593 19.8215 9.31118 19.8097C9.37777 19.7824 20 9.30567 20 9.26266C20 9.25093 19.7807 9.0202 19.5104 8.75036L19.0208 8.26544L18.8367 8.4375C18.6644 8.60175 13.5021 13.6895 10.0906 17.0605C8.88817 18.2494 8.46908 18.6405 8.20666 18.8125C6.15819 20.1656 3.4713 19.6338 2.13961 17.6159C1.86935 17.2131 1.70093 16.822 1.55993 16.3019C1.47376 15.9734 1.46201 15.8482 1.46201 15.3007C1.46201 14.7532 1.47376 14.6281 1.55993 14.2996C1.79101 13.4353 2.12002 12.8879 2.85245 12.137C4.2429 10.7174 12.0607 3.0486 12.2605 2.91563C12.7814 2.55976 13.2867 2.40725 13.929 2.40725C14.7476 2.41116 15.3626 2.66926 15.9462 3.25586C16.4984 3.80336 16.7373 4.34694 16.7765 5.11343C16.8078 5.80562 16.6081 6.45088 16.189 6.971C15.9462 7.27603 6.79271 16.3097 6.57729 16.4583C6.3227 16.6343 6.11119 16.6968 5.7626 16.7008C5.23384 16.7047 4.8265 16.4857 4.54841 16.0477C4.37607 15.7739 4.31732 15.5354 4.34082 15.1912C4.37607 14.6359 4.21157 14.8236 7.97557 11.1046C9.83994 9.26657 11.7082 7.42073 12.1273 7.00229L12.8911 6.24753L12.3858 5.74305L11.8767 5.23466L9.41302 7.6671C3.6358 13.3689 3.45172 13.5605 3.27546 13.8616C3.18538 14.018 3.06396 14.2801 3.00912 14.4482C2.91904 14.718 2.90729 14.8158 2.90729 15.3007C2.90729 15.7974 2.91512 15.8756 3.01304 16.1611C3.43605 17.3734 4.50141 18.136 5.77435 18.136C6.37753 18.136 7.03555 17.917 7.50556 17.5611C7.70531 17.4086 16.8039 8.44142 17.1525 8.05035C18.3315 6.73245 18.5665 4.87097 17.7557 3.29497C16.9018 1.64857 15.0375 0.721745 13.1927 1.03069Z" fill="#D13535"/>
</svg>
