<svg width="59" height="60" viewBox="0 0 59 60" fill="none" xmlns="http://www.w3.org/2000/svg">
<path d="M19.9701 2.63672C18.6104 3.02344 17.7 3.96094 17.3428 5.35547C17.2045 5.90625 17.1699 7.125 17.1699 12.4453C17.1699 16.6523 17.216 19.0664 17.2967 19.4766C17.5387 20.6484 18.3453 21.668 19.417 22.1719C20.2928 22.582 21.618 22.5586 22.4938 22.1133C23.2082 21.7617 23.8189 21.1406 24.2223 20.3672C24.4873 19.875 24.4873 19.793 24.5219 15.3633C24.5564 10.3594 24.568 10.4648 23.7729 10.125C23.2312 9.89063 22.6551 10.0781 22.3439 10.5938C22.1365 10.9336 22.125 11.2266 22.125 15C22.125 18.7734 22.1135 19.0664 21.9061 19.4063C21.5949 19.9219 21.0188 20.1094 20.4771 19.875C19.682 19.5352 19.6936 19.6406 19.7281 14.6367C19.7627 10.207 19.7627 10.125 20.0277 9.63282C20.4311 8.85938 21.0418 8.23829 21.7563 7.88672C22.3094 7.60547 22.5514 7.5586 23.335 7.5586C24.5449 7.57032 25.2594 7.875 26.0314 8.74219C27.0109 9.83204 27.0225 9.90235 27.0225 15.1758C27.0225 19.5703 27.0109 19.7813 26.7689 20.5664C25.9508 23.1914 23.577 24.9609 20.8574 24.9609C17.9881 24.9492 15.5682 22.9688 14.9229 20.0977C14.7615 19.3828 14.75 18.3281 14.773 12.2109L14.8076 5.15625L14.4619 5.21485C13.8396 5.34375 12.4799 6.08204 11.8922 6.6211C11.0971 7.34766 10.4172 8.41407 10.1061 9.42188L9.85254 10.2539V31.2305C9.85254 51.2578 9.86406 52.2422 10.06 52.9102C10.7168 55.0664 12.2264 56.6016 14.3467 57.2695C15.0035 57.4688 15.7871 57.4805 29.5 57.4805C43.2129 57.4805 43.9965 57.4688 44.6533 57.2695C46.7736 56.6016 48.2832 55.0664 48.94 52.9102C49.1359 52.2422 49.1475 51.3633 49.1475 34.8633V17.5195L45.4023 17.4609C41.8992 17.4023 41.6111 17.3906 40.9889 17.1445C39.4102 16.5352 38.0965 15.3164 37.4396 13.8281C36.9441 12.7148 36.875 12.0703 36.875 8.46094V5.03907H30.998C26.2619 5.03907 25.0404 5.00391 24.7293 4.875C24.5219 4.79297 24.1646 4.45313 23.9342 4.13672C22.9893 2.82422 21.4105 2.22657 19.9701 2.63672ZM43.6047 27.668C44.2961 27.9961 44.4229 29.0977 43.8352 29.6602L43.5355 29.9414H36.875H30.2145L29.9148 29.6602C29.3387 29.1094 29.4539 28.0078 30.1107 27.6797C30.4795 27.5039 43.2244 27.4922 43.6047 27.668ZM43.6047 35.168C44.2961 35.4961 44.4229 36.5977 43.8352 37.1602L43.5355 37.4414H29.5H15.4645L15.1648 37.1602C14.5887 36.6094 14.7039 35.5078 15.3607 35.1797C15.7295 35.0039 43.2129 34.9922 43.6047 35.168ZM43.6047 42.668C44.2961 42.9961 44.4229 44.0977 43.8352 44.6602L43.5355 44.9414H29.5H15.4645L15.1648 44.6602C14.5887 44.1094 14.7039 43.0078 15.3607 42.6797C15.7295 42.5039 43.2129 42.4922 43.6047 42.668Z" fill="black"/>
<path d="M39.318 8.8125C39.3525 11.9297 39.3641 12.1641 39.606 12.6797C39.9517 13.4531 40.8045 14.332 41.5189 14.6602C42.0951 14.9297 42.2334 14.9414 45.4369 14.9766L48.7557 15.0117L48.1103 13.7109C46.716 10.9453 44.8146 8.76562 42.3486 7.08984C41.3576 6.42188 39.6867 5.50781 39.4332 5.50781C39.3064 5.50781 39.2834 6.11719 39.318 8.8125Z" fill="black"/>
</svg>
