<svg width="22" height="17" viewBox="0 0 22 17" fill="none" xmlns="http://www.w3.org/2000/svg">
<g clip-path="url(#clip0_552_1199)">
<path d="M10.0117 0.701201C7.88904 0.849367 5.92966 1.41116 4.21091 2.3619C3.37302 2.82492 2.28591 3.69539 1.65857 4.40536C1.38787 4.71095 0.859351 5.48882 0.670288 5.85924C0.459741 6.27287 0.232007 6.90875 0.120288 7.39955C-0.012915 8.00147 -0.012915 9.14359 0.120288 9.74551C0.313647 10.5975 0.618726 11.2827 1.13865 12.0452C1.70583 12.8755 2.29451 13.4651 3.23982 14.1473C4.18943 14.8264 5.01013 15.2493 6.16599 15.6567C7.22732 16.0302 8.18123 16.2494 9.36716 16.3883C10.2051 16.484 11.7949 16.484 12.6328 16.3883C13.8187 16.2494 14.7726 16.0302 15.834 15.6567C16.9898 15.2493 17.8105 14.8264 18.7601 14.1473C19.7054 13.4651 20.2941 12.8755 20.8613 12.0452C21.2394 11.4926 21.4285 11.1315 21.6347 10.5759C21.9054 9.83503 21.9699 9.43066 21.9699 8.57253C21.9699 7.7144 21.9054 7.31003 21.6347 6.5692C21.4285 6.01358 21.2394 5.65242 20.8613 5.09989C20.2941 4.26954 19.7054 3.67996 18.7601 2.99778C17.8105 2.31868 16.9898 1.89579 15.834 1.48833C14.7769 1.11483 13.7972 0.892583 12.6543 0.762937C12.0226 0.69194 10.6133 0.657986 10.0117 0.701201ZM12.0226 1.93901C14.1195 2.10261 16.0359 2.77244 17.557 3.86208C19.3402 5.1431 20.2812 6.77293 20.2812 8.57253C20.2812 10.3721 19.3402 12.002 17.557 13.283C15.7738 14.564 13.5051 15.24 11 15.24C8.4949 15.24 6.22615 14.564 4.44294 13.283C2.65974 12.002 1.71873 10.3721 1.71873 8.57253C1.71873 6.77293 2.65974 5.1431 4.44294 3.86208C5.94255 2.78479 7.88044 2.10569 9.92576 1.93901C10.3984 1.90197 11.5414 1.89888 12.0226 1.93901Z" fill="black"/>
<path d="M10.6305 4.40227C10.4242 4.47018 10.2566 4.61835 10.1836 4.79121C10.1492 4.88072 10.1406 5.45487 10.1492 6.84393C10.1621 8.72378 10.1664 8.77626 10.2523 8.89665C10.3211 8.99542 10.6648 9.19915 12.057 9.95542C12.998 10.4709 13.8574 10.9278 13.9648 10.9741C14.6824 11.2827 15.5289 10.7302 15.168 10.1931C15.082 10.0635 14.9059 9.96159 13.4664 9.18372L11.8594 8.31941V6.59698C11.8594 5.39313 11.8465 4.84677 11.8121 4.77269C11.6875 4.51031 11.3738 4.34362 11 4.34362C10.8926 4.34362 10.725 4.3714 10.6305 4.40227Z" fill="black"/>
</g>
<defs>
<clipPath id="clip0_552_1199">
<rect width="22" height="15.8044" fill="white" transform="translate(0 0.670334)"/>
</clipPath>
</defs>
</svg>
