<svg width="32" height="29" viewBox="0 0 32 29" fill="none" xmlns="http://www.w3.org/2000/svg">
<path d="M0.868896 0.289474H31.2206V28.7105H0.868896V0.289474Z" fill="#F4E966" fill-opacity="0.16"/>
<path d="M15.3822 0.344195C14.232 0.519286 13.204 1.06124 12.3993 1.90751C11.5145 2.83716 11.0553 3.91272 10.9921 5.20089C10.9036 7.00183 11.7968 8.72355 13.3388 9.71991C14.0972 10.2118 14.8261 10.462 15.7109 10.5328C17.3498 10.6579 18.7486 10.1493 19.8777 9.0112C20.9816 7.89812 21.4745 6.52658 21.3397 4.95076C21.2217 3.60006 20.6192 2.43695 19.5744 1.54482C18.7486 0.844456 17.9902 0.494273 16.9411 0.344195C16.4355 0.273325 15.8457 0.269156 15.3822 0.344195ZM17.1771 1.65321C17.8385 1.81996 18.3357 2.10761 18.8918 2.63705C19.6165 3.31657 19.983 4.06697 20.0799 5.0383C20.1937 6.1889 19.8356 7.23945 19.0477 8.07322C18.559 8.59015 17.8385 9.02788 17.2276 9.18213C16.3218 9.40724 15.2432 9.31136 14.468 8.932C13.4105 8.41506 12.6268 7.44789 12.3403 6.30563C12.2308 5.8679 12.2434 4.87989 12.3656 4.42965C12.69 3.22069 13.7517 2.09928 14.9314 1.71991C15.5718 1.51564 16.5282 1.48646 17.1771 1.65321Z" fill="#D2C52B"/>
<path d="M11.8579 10.6245C11.2133 10.6912 10.5476 10.933 10.021 11.2832C8.70644 12.167 7.85537 14.143 7.65735 16.7694C7.54781 18.2452 7.63629 18.9747 8.01969 19.7376C8.23035 20.1628 8.6306 20.6298 9.03928 20.9299C9.35105 21.155 9.87349 21.3885 10.3327 21.5052L10.7119 21.6053H16.6104H22.5088L22.888 21.5094C24.2194 21.1634 25.1505 20.2754 25.4834 19.0206C25.6561 18.3744 25.635 16.8319 25.4328 15.6146C24.9904 12.9049 23.8697 11.2791 22.096 10.7705C21.6915 10.6537 20.9668 10.5662 20.7519 10.6079C20.5455 10.6454 20.259 10.7955 19.6102 11.2082C18.9108 11.6543 18.8012 11.7126 18.2788 11.9002C17.6637 12.1212 17.2044 12.2087 16.6357 12.2087C16.0458 12.2087 15.5908 12.1253 14.9925 11.9169C14.4279 11.7168 14.4027 11.7043 13.5179 11.1498C13.0544 10.858 12.709 10.6704 12.5741 10.6329C12.3382 10.5745 12.3382 10.5745 11.8579 10.6245ZM12.9533 12.2712C13.7454 12.7757 14.0783 12.9383 14.7734 13.1634C16.5851 13.7512 18.4347 13.4677 20.179 12.3379C20.9668 11.8252 20.95 11.8335 21.2828 11.8752C22.8122 12.067 23.7686 13.3385 24.1731 15.7272C24.3374 16.711 24.3879 18.0826 24.2784 18.6037C24.1014 19.4416 23.5284 20.0336 22.6521 20.2796C22.3993 20.3504 22.0665 20.3546 16.6104 20.3546C11.1417 20.3546 10.8257 20.3504 10.5645 20.2796C9.93669 20.1045 9.39319 19.6793 9.14039 19.1665C8.92131 18.7246 8.86654 18.3536 8.90024 17.4573C8.92973 16.5526 8.97187 16.1316 9.11933 15.3937C9.22887 14.8184 9.48588 14.0013 9.66704 13.647C10.2105 12.5797 10.9479 11.9961 11.9042 11.8752C12.0601 11.8544 12.2034 11.8377 12.2202 11.8335C12.2371 11.8335 12.5657 12.0294 12.9533 12.2712Z" fill="#D2C52B"/>
</svg>
