<svg width="27" height="24" viewBox="0 0 27 24" fill="none" xmlns="http://www.w3.org/2000/svg">
<rect width="27" height="24" fill="#F9F7E1"/>
<path d="M12.8443 5.00964C10.5761 5.22839 8.81658 6.31589 8.13162 7.91902C7.90603 8.44089 7.87322 8.68464 7.85271 9.94402L7.8281 11.1034L7.5533 11.1378C6.88474 11.2159 6.37615 11.5346 6.11365 12.0378L6.01521 12.2253L6.00291 15.444C5.9947 17.7503 6.00291 18.7221 6.03982 18.8753C6.16287 19.4503 6.72068 19.8971 7.46306 20.019C7.61892 20.044 9.30056 20.0534 13.4308 20.0534C19.6447 20.0534 19.3945 20.0596 19.8498 19.894C20.3133 19.7221 20.7029 19.3034 20.7972 18.8753C20.8342 18.7221 20.8424 17.7503 20.8342 15.444L20.8219 12.2253L20.7234 12.0378C20.4609 11.5346 19.9523 11.2159 19.2838 11.1378L19.009 11.1034L18.9844 9.94402C18.9638 8.68464 18.931 8.44089 18.7054 7.91902C18.2502 6.85339 17.2658 5.96902 15.9779 5.46902C15.5103 5.28464 14.9689 5.14089 14.4808 5.06902C14.1445 5.01902 13.1314 4.98152 12.8443 5.00964ZM14.3127 6.00339C15.699 6.22839 16.8556 6.95652 17.4094 7.95964C17.6883 8.45964 17.6965 8.51277 17.7129 9.87214L17.7293 11.1159H13.4185H9.10779L9.1242 9.87214C9.1365 8.71902 9.1447 8.61589 9.22673 8.39402C9.46463 7.75027 9.84607 7.26902 10.4654 6.82214C11.1586 6.32527 11.9133 6.06277 12.9879 5.94714C13.2176 5.92214 14.0133 5.95652 14.3127 6.00339ZM19.2838 12.1128C19.3617 12.144 19.4642 12.219 19.5094 12.2753C19.5914 12.3784 19.5914 12.4378 19.5914 15.5846C19.5914 18.7221 19.5914 18.7909 19.5094 18.8909C19.4642 18.9471 19.3535 19.019 19.2633 19.0534C19.0951 19.1159 18.9885 19.1159 13.4185 19.1159C7.84861 19.1159 7.74197 19.1159 7.57381 19.0534C7.48357 19.019 7.37283 18.9471 7.32771 18.8909C7.24568 18.7909 7.24568 18.7221 7.24568 15.5846C7.24568 12.419 7.24568 12.3815 7.32771 12.2721C7.37693 12.2128 7.47537 12.1378 7.5533 12.1096C7.68865 12.0565 8.05369 12.0534 13.4185 12.0534C18.9228 12.0534 19.1484 12.0565 19.2838 12.1128Z" fill="#D2C52B"/>
<path d="M12.9265 13.5159C12.7788 13.544 12.5778 13.6065 12.4753 13.6534C11.6632 14.0159 11.3432 14.819 11.7452 15.469C11.9216 15.7503 12.2169 15.9846 12.5532 16.1065L12.7993 16.194L12.8034 16.7721C12.8034 17.2596 12.8157 17.369 12.8772 17.4596C13.0782 17.769 13.7591 17.769 13.96 17.4596C14.0216 17.369 14.0339 17.2596 14.0339 16.7721L14.038 16.194L14.2841 16.1065C14.8214 15.9128 15.211 15.4659 15.252 15.0003C15.3177 14.2721 14.7557 13.669 13.8657 13.5065C13.5294 13.4471 13.2587 13.4503 12.9265 13.5159ZM13.796 14.494C14.1364 14.6784 14.0913 15.1534 13.7222 15.2878C13.554 15.3471 13.2833 15.3471 13.1151 15.2878C12.7706 15.1628 12.7009 14.7128 13.0003 14.5128C13.189 14.3815 13.5745 14.3753 13.796 14.494Z" fill="#D2C52B"/>
</svg>
