<svg width="15" height="31" viewBox="0 0 15 31" fill="none" xmlns="http://www.w3.org/2000/svg">
<path d="M4.87002 0.705987C4.46953 0.85246 4.06591 1.43835 3.89696 2.11799C3.78119 2.58085 3.74052 2.9734 3.74052 3.63546V4.15105L2.21678 4.16862C0.730582 4.1862 0.686778 4.19206 0.545981 4.30924C0.358251 4.47329 0.154877 4.85412 0.0703987 5.20565C-0.0234662 5.58063 -0.0234662 6.24855 0.0703987 6.62352C0.154877 6.97506 0.358251 7.35589 0.545981 7.51994L0.689907 7.64297H7.02579H13.3617L13.5056 7.51994C13.6933 7.35589 13.8967 6.97506 13.9812 6.62352C14.075 6.24855 14.075 5.58063 13.9812 5.20565C13.8967 4.85412 13.6933 4.47329 13.5056 4.30924C13.3648 4.19206 13.321 4.1862 11.8379 4.16862L10.3111 4.15105V3.63546C10.3111 3.34837 10.2954 2.97926 10.2798 2.80349C10.1734 1.74888 9.71971 0.899332 9.15652 0.700128C8.95002 0.629821 5.07027 0.629821 4.87002 0.705987ZM9.1221 2.5164C9.30983 2.69803 9.37241 2.9734 9.37241 3.6296V4.1569H7.02579H4.67916V3.6296C4.67916 2.98512 4.74174 2.69803 4.92321 2.52226C5.03585 2.41094 5.11094 2.40508 7.01953 2.39922C8.94376 2.39922 9.00321 2.40508 9.1221 2.5164Z" fill="#E67575"/>
<path d="M0.971455 9.67603C0.980841 9.81664 1.16544 13.9355 1.3782 18.8336C1.59409 23.7316 1.78495 27.9618 1.80372 28.2372C1.87881 29.3914 2.3012 30.2995 2.87691 30.5514C3.16163 30.6803 10.8898 30.6803 11.1745 30.5514C11.7502 30.2995 12.1726 29.3914 12.2477 28.2372C12.2665 27.9618 12.4574 23.7316 12.6733 18.8336C12.886 13.9355 13.0706 9.81664 13.08 9.67603L13.0956 9.42995H7.02573H0.955811L0.971455 9.67603ZM4.48199 11.3517C4.53518 11.422 4.59776 11.5626 4.62592 11.6681C4.66347 11.8204 4.72604 13.4492 4.91377 19.1265L5.15469 26.3857L5.08899 26.6377C4.97322 27.0888 4.68537 27.247 4.44758 26.9892C4.20979 26.7373 4.24107 27.2177 3.97512 19.1851L3.73421 11.9259L3.79991 11.6739C3.91881 11.2111 4.25672 11.0529 4.48199 11.3517ZM7.24474 11.3048C7.32609 11.381 7.3918 11.504 7.43247 11.6564C7.49505 11.8848 7.49505 11.9845 7.49505 19.1558C7.49505 26.3271 7.49505 26.4267 7.43247 26.6552C7.36051 26.9189 7.18217 27.124 7.02573 27.124C6.86929 27.124 6.69094 26.9189 6.61898 26.6552C6.5564 26.4267 6.5564 26.3271 6.5564 19.1558C6.5564 11.9903 6.5564 11.8848 6.61898 11.6564C6.73475 11.2286 7.00695 11.0763 7.24474 11.3048ZM10.0638 11.3048C10.1483 11.3868 10.2077 11.504 10.2515 11.6739L10.3172 11.9259L10.0763 19.1851C9.81038 27.2177 9.84167 26.7373 9.60388 26.9892C9.36609 27.247 9.07823 27.0888 8.96247 26.6377L8.89676 26.3857L9.13455 19.1558C9.3567 12.3887 9.37547 11.9024 9.43805 11.6739C9.48498 11.504 9.54443 11.3927 9.63516 11.3048C9.79786 11.1583 9.90424 11.1583 10.0638 11.3048Z" fill="#E67575"/>
</svg>
