<svg width="28" height="30" viewBox="0 0 28 30" fill="none" xmlns="http://www.w3.org/2000/svg">
<path d="M23.2532 0.104013C21.5522 0.639587 20.3883 2.41544 20.3883 4.46613C20.3883 5.27653 20.5077 5.86144 20.8061 6.545C21.5402 8.20105 23.104 9.19468 24.6201 8.94804C25.5512 8.80005 26.3151 8.34904 26.9239 7.58796C27.3596 7.04534 27.5745 6.64366 27.7715 6.00238C28.2967 4.2829 27.867 2.30269 26.7031 1.08355C26.333 0.703011 25.587 0.252001 25.0737 0.0969658C24.626 -0.0369272 23.6889 -0.0298805 23.2532 0.104013Z" fill="black"/>
<path d="M0.918707 3.03557C0.793366 3.07081 0.572527 3.23289 0.42928 3.38792C-0.245173 4.07853 -0.101926 5.32586 0.697868 5.79801L1.0142 5.98123H8.85696C14.8912 5.98123 16.7594 5.96009 16.9504 5.89667C17.2906 5.77687 17.6607 5.31881 17.7562 4.90304C17.9173 4.23357 17.6786 3.52887 17.1772 3.18356L16.8967 2.98624L9.01811 2.97215C3.94479 2.9651 1.06195 2.98624 0.918707 3.03557Z" fill="black"/>
<path d="M8.09294 10.597C7.03649 10.8789 6.03973 11.788 5.53837 12.9366L5.28172 13.5215H3.13302C1.3305 13.5215 0.948507 13.5356 0.76348 13.6272C-0.245216 14.1276 -0.245216 15.8753 0.76348 16.3756C0.948507 16.4672 1.3305 16.4813 3.13302 16.4813H5.28172L5.53837 17.0592C6.23073 18.6377 7.63932 19.589 9.13744 19.4904C10.7132 19.3776 12.0561 18.1585 12.5515 16.3756C12.6828 15.8964 12.7067 15.685 12.7067 15.0014C12.7067 14.3108 12.6828 14.1064 12.5455 13.6132C12.1695 12.2531 11.2921 11.2101 10.1103 10.7239C9.56121 10.4984 8.67189 10.442 8.09294 10.597Z" fill="black"/>
<path d="M16.0312 13.6343C14.9987 14.1628 15.0703 16.0444 16.1387 16.4108C16.2938 16.4672 18.0367 16.4813 21.773 16.4672L27.1806 16.4461L27.4432 16.2347C28.2669 15.5511 28.1475 14.0783 27.2403 13.6273C27.0433 13.5356 26.3629 13.5215 21.6298 13.5215C16.9504 13.5286 16.2103 13.5427 16.0312 13.6343Z" fill="black"/>
<path d="M18.5679 21.0619C17.6666 21.231 17.0698 21.5904 16.4192 22.3656C15.691 23.2183 15.3508 24.0921 15.2792 25.2549C15.2076 26.4881 15.6015 27.7425 16.3476 28.6304C17.0996 29.5254 17.8517 29.9341 18.8723 29.9905C19.6184 30.0398 20.1973 29.8989 20.824 29.5395C21.4269 29.1871 22.1908 28.271 22.4773 27.5663L22.6862 27.0589L24.7514 27.0519C27.1627 27.0519 27.2821 27.0307 27.6581 26.5163C28.2311 25.7482 28.064 24.6559 27.3059 24.2049L26.9896 24.0216H24.829H22.6683L22.5967 23.7679C22.3759 22.9857 21.5403 21.9357 20.7823 21.4917C20.1257 21.1112 19.2244 20.935 18.5679 21.0619Z" fill="black"/>
<path d="M0.697784 24.2049C0.160608 24.522 -0.102011 25.1914 0.0412361 25.8821C0.136734 26.3542 0.548568 26.8545 0.942497 26.9673C1.14543 27.0307 2.62565 27.0519 6.3799 27.0519C12.2351 27.0519 11.9665 27.073 12.3784 26.5163C12.9513 25.7482 12.7842 24.6559 12.0262 24.2049L11.7099 24.0216H6.362H1.01412L0.697784 24.2049Z" fill="black"/>
</svg>
