<svg width="20" height="22" viewBox="0 0 20 22" fill="none" xmlns="http://www.w3.org/2000/svg">
<path d="M8.23801 0.0392628C3.48208 0.288626 0.241731 1.41506 0.0185787 2.89834C-0.00466635 3.07031 0.00463165 3.10471 0.125506 3.22079C0.302168 3.39277 0.915836 3.76681 1.35284 3.96888C2.43141 4.47191 3.90049 4.82445 5.76009 5.03942C7.18734 5.2071 8.11714 5.25009 9.99998 5.25009C11.8828 5.25009 12.8126 5.2071 14.2399 5.03942C16.0995 4.82445 17.5686 4.47191 18.6471 3.96888C19.0841 3.76681 19.6978 3.39277 19.8745 3.22079C19.9953 3.10471 20.0046 3.07031 19.9814 2.89834C19.7582 1.39786 16.5458 0.292925 11.6736 0.0349636C10.7578 -0.0123296 9.17246 -0.0123296 8.23801 0.0392628Z" fill="white"/>
<path d="M0.00463867 6.37222V8.41011L0.204546 8.56919C1.08786 9.26999 2.58018 9.82031 4.50487 10.1557C5.11389 10.2631 6.65271 10.4308 7.53602 10.4867C7.98232 10.5125 9.09343 10.5383 9.99999 10.5383C13.2078 10.5383 15.5602 10.2717 17.4384 9.70422C18.4054 9.40757 19.2515 9.00343 19.8001 8.56919L19.9953 8.41011V6.37222C19.9953 5.25008 19.9814 4.33432 19.9674 4.33432C19.9489 4.33432 19.814 4.40311 19.6653 4.4848C17.7173 5.58113 14.4584 6.14005 9.99999 6.14005C5.5416 6.14005 2.28265 5.58113 0.334718 4.4848C0.18595 4.40311 0.0511287 4.33432 0.0325327 4.33432C0.0185857 4.33432 0.00463867 5.25008 0.00463867 6.37222Z" fill="white"/>
<path d="M0.00463867 11.6389V13.6983L0.227791 13.8703C1.91073 15.1687 5.16503 15.8179 9.99999 15.8179C12.7336 15.8179 14.7094 15.6416 16.4853 15.2375C17.9312 14.9064 19.0098 14.4593 19.7768 13.8703L19.9953 13.6983V11.6389V9.57952L19.6839 9.7601C18.2194 10.5899 15.8996 11.1316 12.8359 11.3509C11.8177 11.424 8.18223 11.424 7.1641 11.3509C4.10041 11.1316 1.78056 10.5899 0.320771 9.7601L0.00463867 9.57952V11.6389Z" fill="white"/>
<path d="M0.013947 17.069L0.027894 19.2746L0.158066 19.5025C0.399814 19.9281 0.785681 20.2506 1.47838 20.6031C3.72385 21.7467 8.69828 22.2799 13.1474 21.8542C16.7875 21.506 19.1818 20.6633 19.8419 19.5025L19.9721 19.2746L19.9861 17.069L20 14.8678L19.6839 15.044C18.2101 15.8824 15.8252 16.4284 12.7429 16.6391C11.6783 16.7122 8.32171 16.7122 7.25709 16.6391C4.1748 16.4284 1.78987 15.8824 0.316132 15.044L0 14.8678L0.013947 17.069Z" fill="white"/>
</svg>
