<svg width="20" height="22" viewBox="0 0 20 22" fill="none" xmlns="http://www.w3.org/2000/svg">
<path d="M9.5323 0.0568829C9.15891 0.147165 8.87886 0.301939 8.59437 0.577089C8.13652 1.01991 7.99872 1.41544 7.99872 2.30968V2.85568L7.65199 2.98035C5.56275 3.72842 3.96693 5.38362 3.37128 7.43435C3.17569 8.10503 3.14902 8.35868 3.10901 10.0354C3.069 11.7938 3.03344 12.1549 2.7934 13.1093C2.5178 14.197 2.01549 15.3019 1.36205 16.2564C1.07756 16.6734 0.819739 16.9915 0.157406 17.731C-0.109305 18.0319 -0.0115112 18.5177 0.352994 18.6983C0.526356 18.7843 0.593034 18.7843 9.99905 18.7843C19.4051 18.7843 19.4717 18.7843 19.6451 18.6983C19.7607 18.6424 19.854 18.5521 19.9118 18.4404C20.0807 18.1222 20.0141 17.8944 19.6495 17.516C18.516 16.3423 17.6137 14.7215 17.2047 13.1093C16.9647 12.1635 16.9291 11.7981 16.8891 10.0354C16.8491 8.35438 16.8269 8.11363 16.6268 7.43005C16.0356 5.38792 14.3642 3.66393 12.3017 2.95886L11.9994 2.85568V2.30968C11.9994 1.41974 11.8616 1.01991 11.3993 0.57279C10.9014 0.086977 10.2035 -0.106487 9.5323 0.0568829ZM10.3102 1.37244C10.5769 1.50572 10.6658 1.70778 10.6658 2.1979V2.59772H9.99905H9.33227V2.1893C9.33672 1.70778 9.40339 1.54441 9.67011 1.38964C9.88347 1.26497 10.0791 1.26067 10.3102 1.37244Z" fill="white"/>
<path d="M3.04681 2.31398C2.90456 2.40857 2.36225 2.97607 2.06442 3.3501C0.948678 4.75165 0.210777 6.57022 0.0463052 8.3372C-0.0248178 9.08526 -0.0159274 9.34322 0.0863119 9.54098C0.188551 9.73445 0.441927 9.88492 0.664186 9.88492C1.05536 9.88492 1.33096 9.56678 1.33096 9.11536C1.33096 8.73273 1.41098 8.02335 1.51322 7.54184C1.79326 6.20048 2.52672 4.76884 3.44687 3.76712C4.01586 3.15233 4.04253 3.10934 4.04253 2.85999C4.04253 2.61493 3.94918 2.44296 3.74915 2.31398C3.57578 2.20221 3.22017 2.2065 3.04681 2.31398Z" fill="white"/>
<path d="M16.249 2.31399C16.049 2.44296 15.9556 2.61493 15.9556 2.86429C15.9556 3.10934 15.9645 3.12224 16.5691 3.78862C17.4848 4.79464 18.2093 6.21338 18.4849 7.54184C18.5872 8.02335 18.6672 8.73273 18.6672 9.11536C18.6672 9.56678 18.9428 9.88492 19.334 9.88492C19.5562 9.88492 19.8096 9.73445 19.9118 9.54098C20.0141 9.34752 20.023 9.08096 19.9563 8.35869C19.7829 6.55302 19.0228 4.69146 17.8937 3.30711C17.5426 2.87718 17.1247 2.43436 16.9691 2.32688C16.7824 2.20221 16.4357 2.19791 16.249 2.31399Z" fill="white"/>
<path d="M6.97632 20.1257C6.97632 20.2461 7.39861 20.8093 7.69644 21.0887C8.29209 21.6476 8.95887 21.9356 9.77679 21.9915C10.7592 22.0603 11.6971 21.7078 12.3861 21.007C12.675 20.7147 13.0218 20.2289 13.0218 20.1214C13.0218 20.087 12.1994 20.0741 9.99905 20.0741C7.72755 20.0741 6.97632 20.087 6.97632 20.1257Z" fill="white"/>
</svg>
