<svg width="20" height="22" viewBox="0 0 20 22" fill="none" xmlns="http://www.w3.org/2000/svg">
<path d="M9.37755 0.0132818C7.94594 0.185255 6.74997 0.748466 5.75407 1.72441C4.86932 2.58858 4.36248 3.50863 4.10017 4.71674C3.99347 5.22406 3.99347 6.35908 4.10017 6.8664C4.36248 8.07451 4.87377 8.99886 5.75407 9.85873C6.64772 10.7315 7.62583 11.2431 8.88849 11.4968C9.40867 11.6 10.578 11.6 11.1204 11.4968C12.3208 11.2646 13.3167 10.7487 14.2059 9.89742C15.104 9.04186 15.6375 8.08741 15.8998 6.8664C16.0065 6.35908 16.0065 5.22406 15.8998 4.71674C15.7264 3.92137 15.4107 3.18618 14.9573 2.52409C14.6772 2.11565 13.8102 1.27298 13.3967 1.01072C12.6809 0.550697 11.9073 0.236847 11.147 0.0949688C10.7869 0.0261793 9.68877 -0.0254126 9.37755 0.0132818Z" fill="white"/>
<path d="M7.61251 12.9542C5.12276 13.2466 2.87754 14.6095 1.43259 16.7118C0.583412 17.9414 0.0987996 19.3946 0.0143259 20.9467C-0.0123499 21.4239 -0.00790397 21.4798 0.0810157 21.6475C0.143259 21.7678 0.232179 21.8538 0.352221 21.914C0.525614 22 0.592303 22 10 22C19.4077 22 19.4744 22 19.6478 21.914C19.7678 21.8538 19.8567 21.7678 19.919 21.6475C20.0079 21.4798 20.0124 21.4239 19.9857 20.9467C19.8701 18.8271 19.0342 16.9698 17.5137 15.4478C16.0732 14.0076 14.2148 13.1305 12.183 12.9284C11.5116 12.8639 8.2305 12.8811 7.61251 12.9542Z" fill="white"/>
</svg>
