<svg width="16" height="15" viewBox="0 0 16 15" fill="none" xmlns="http://www.w3.org/2000/svg">
<path d="M2.92375 1.19507L0 2.39754V4.94765C0 7.74079 0.00329251 7.82284 0.200843 8.55821C0.500462 9.68178 1.07007 10.6539 1.92612 11.4997C2.53524 12.1025 3.09167 12.4875 3.85883 12.8442C4.50745 13.1472 5.48204 13.428 5.86726 13.428C6.03518 13.428 6.56198 13.3144 6.97684 13.1882C7.28304 13.0967 7.3456 13.0683 7.33243 13.0241C7.32255 12.9957 7.25341 12.841 7.18097 12.6801C6.96696 12.213 6.78258 11.4871 6.78258 11.0989V10.9979H4.78732C2.58133 10.9979 2.68011 11.0073 2.54841 10.7959C2.48914 10.7012 2.48585 10.5939 2.48585 8.34675C2.48585 6.13118 2.48914 5.98916 2.54511 5.9071C2.57804 5.8566 2.65047 5.79033 2.70974 5.75877C2.81181 5.6988 2.9007 5.69564 5.85409 5.69564C9.16636 5.69564 8.99844 5.68618 9.1499 5.87238C9.21245 5.94813 9.21904 5.99863 9.21904 6.3458C9.21904 6.56041 9.23221 6.73715 9.24867 6.73715C9.26513 6.73715 9.34086 6.70243 9.41988 6.66141C9.63719 6.54779 10.1377 6.36473 10.4274 6.29214C10.727 6.21955 11.2999 6.1375 11.5501 6.1375H11.7213V4.26594V2.39754L8.80418 1.19823C7.20073 0.538605 5.87714 -0.00424194 5.86397 -0.00424194C5.85409 -0.00739765 4.5305 0.532292 2.92375 1.19507ZM6.44345 2.17977C6.54881 2.20502 6.77599 2.29023 6.9472 2.37229C7.20731 2.49222 7.30938 2.56481 7.54315 2.78889C7.77692 3.01297 7.85265 3.11081 7.97776 3.36014C8.19836 3.78621 8.23458 3.95349 8.25433 4.56577L8.27409 5.09599H7.71107H7.15134L7.13817 4.58155C7.12829 4.0892 7.125 4.06395 7.03281 3.8809C6.90769 3.63788 6.65746 3.39802 6.40394 3.27808C6.22285 3.19603 6.17676 3.18656 5.86067 3.18656C5.54789 3.18656 5.49521 3.19603 5.32729 3.27493C5.0573 3.40117 4.82683 3.61263 4.70829 3.84618C4.58976 4.07657 4.54367 4.3259 4.54367 4.77091V5.09599H4.0004H3.45714V4.65414C3.45714 4.15232 3.50982 3.83671 3.65469 3.51163C3.96089 2.80467 4.70829 2.25236 5.51496 2.13243C5.75861 2.09455 6.18993 2.11665 6.44345 2.17977Z" fill="#D2C52B"/>
<path d="M11.1485 6.67403C9.48905 6.87602 8.06339 7.98065 7.54317 9.47347C7.38842 9.91532 7.33574 10.1867 7.31928 10.6823C7.29953 11.1935 7.34562 11.5407 7.49049 12.0236C7.7934 13.0209 8.59019 13.9709 9.54831 14.4696C10.5229 14.9777 11.616 15.1229 12.6597 14.883C14.362 14.4916 15.6559 13.1724 15.949 11.5376C16.0148 11.1588 16.0181 10.4929 15.9523 10.1268C15.6395 8.40672 14.2533 7.05276 12.4754 6.72137C12.1428 6.6614 11.4646 6.63615 11.1485 6.67403ZM11.8728 8.12898C12.2778 8.19842 12.6301 8.46037 12.8013 8.81385C12.8803 8.97166 12.8902 9.03478 12.8902 9.30936C12.8902 9.60287 12.8836 9.64075 12.7816 9.83642C12.6038 10.1867 12.2679 10.4235 11.8597 10.496C11.4218 10.5749 10.8917 10.3635 10.6381 10.0069C10.1212 9.28726 10.5394 8.29625 11.4316 8.12898C11.6325 8.09111 11.6522 8.09111 11.8728 8.12898ZM12.1922 10.8906C12.3239 10.9158 12.584 11.0105 12.7717 11.0989C13.0746 11.2377 13.1536 11.2914 13.3973 11.5312C13.552 11.6796 13.7298 11.8847 13.7924 11.9857C13.9241 12.2003 14.0755 12.5948 14.1084 12.8063L14.1315 12.9546H11.6588H9.18284L9.2026 12.8347C9.37052 11.8721 10.141 11.0989 11.1452 10.8874C11.4185 10.8274 11.909 10.8306 12.1922 10.8906Z" fill="#D2C52B"/>
<path d="M5.47216 6.85077C5.03755 7.05907 4.88609 7.54826 5.12315 7.97118C5.17254 8.05955 5.25815 8.15739 5.30754 8.1921L5.39973 8.25523V8.89907C5.39973 9.41982 5.4096 9.56816 5.45241 9.67231C5.55118 9.90901 5.79153 10.0037 6.03847 9.89954C6.28541 9.79224 6.30187 9.73543 6.31504 8.94325L6.32492 8.26154L6.44016 8.15739C6.75624 7.87018 6.79904 7.45674 6.54223 7.09694C6.32163 6.77818 5.84751 6.67087 5.47216 6.85077Z" fill="#D2C52B"/>
</svg>
