<svg width="21" height="23" viewBox="0 0 21 23" fill="none" xmlns="http://www.w3.org/2000/svg">
<path d="M1.05675 0.0498705C0.622309 0.20048 0.313112 0.497394 0.121331 0.936311L0 1.21601V3.66878V6.12155L0.129159 6.40986C0.285714 6.76272 0.594912 7.08545 0.911937 7.22745L1.13503 7.32642L4.4227 7.33933C6.78278 7.34794 7.77691 7.33933 7.94521 7.30491C8.57143 7.17151 9.01761 6.68096 9.13894 5.99246C9.17026 5.81173 9.17808 5.06299 9.17026 3.49666C9.15851 1.27195 9.15851 1.25904 9.06849 1.01377C8.93934 0.665215 8.64579 0.325269 8.32485 0.153145L8.06262 0.0111427L4.63797 0.0025363C1.94521 -0.00606966 1.17808 0.00683928 1.05675 0.0498705Z" fill="white"/>
<path d="M11.9139 0.049861C11.499 0.170348 11.0959 0.570537 10.9315 1.01376L10.8415 1.25903L10.8298 6.25064C10.8219 9.85664 10.8298 11.3154 10.8611 11.5004C10.9824 12.1889 11.4286 12.6795 12.0548 12.8129C12.2231 12.8473 13.2172 12.8559 15.5773 12.8473L18.865 12.8344L19.0881 12.7354C19.4051 12.5934 19.7143 12.2707 19.8709 11.9178L20 11.6295V6.42276V1.216L19.8787 0.9363C19.7221 0.57484 19.4873 0.316653 19.1664 0.148832L18.9041 0.0111332L15.499 0.00252628C12.8885 -0.0017767 12.0509 0.00683022 11.9139 0.049861Z" fill="white"/>
<path d="M1.1546 9.0436C0.716243 9.13826 0.305284 9.50403 0.105675 9.97737L0 10.2226V15.4294V20.6362L0.121331 20.9159C0.273973 21.273 0.516634 21.5398 0.841487 21.7076L1.09589 21.841H4.57926H8.06262L8.32485 21.699C8.64579 21.5269 8.93934 21.187 9.06849 20.8384L9.15851 20.5931L9.17026 15.6015C9.17808 11.9955 9.17026 10.5368 9.13894 10.3517C9.02153 9.67615 8.58317 9.1856 7.9726 9.0436C7.72211 8.98766 1.42857 8.98335 1.1546 9.0436Z" fill="white"/>
<path d="M12.1496 15.0483C11.5625 15.2076 11.1516 15.6852 11.0341 16.3436C11.0028 16.5243 10.995 17.2687 11.0028 18.8394C11.0146 21.0641 11.0146 21.077 11.1046 21.3223C11.2337 21.6708 11.5273 22.0108 11.8482 22.1829L12.1105 22.3249H15.5938H19.0772L19.3394 22.1872C19.6604 22.0194 19.8952 21.7612 20.0517 21.3997L20.1731 21.12V18.6672V16.2145L20.0439 15.9262C19.8874 15.5733 19.5782 15.2506 19.2611 15.1086L19.038 15.0096L15.6917 15.001C13.1516 14.9967 12.2983 15.0053 12.1496 15.0483Z" fill="white"/>
</svg>
