<svg width="58" height="58" viewBox="0 0 58 58" fill="none" xmlns="http://www.w3.org/2000/svg">
<path d="M15.1379 0.558395C14.8319 0.614517 14.1404 0.86145 13.6076 1.10838L12.644 1.55735L7.23664 6.91133L1.82929 12.2653L1.37585 13.2194C1.12645 13.7469 0.877056 14.4765 0.809039 14.8357C0.638997 15.7336 0.638997 47.6105 0.797703 48.4748C1.14912 50.3043 2.49813 51.8308 4.39127 52.5379L5.04876 52.7849L22.3931 52.841L39.7261 52.8971L41.1771 54.7491C41.9706 55.7705 42.7642 56.7246 42.9455 56.8593C43.1156 57.0052 43.5804 57.2858 43.9885 57.4766C44.6346 57.7909 44.8387 57.8358 45.6889 57.8246C47.0039 57.8246 47.7974 57.5103 48.6363 56.6685C49.1124 56.1746 49.6452 55.3552 50.9375 53.0767C51.9578 51.2808 52.604 50.0125 52.604 49.8217C52.604 49.1819 51.7537 48.8003 51.2663 49.2268C51.1416 49.3278 50.3367 50.6523 49.4865 52.1675C48.625 53.6828 47.7974 55.0858 47.6387 55.2991C47.2193 55.8603 46.267 56.2532 45.5189 56.1746C44.8047 56.1073 44.3626 55.894 43.8978 55.4001C43.297 54.7603 37.935 47.8574 37.7876 47.5319C37.0394 45.8932 38.2524 44.0524 40.0775 44.0524C41.1884 44.0524 41.5285 44.3106 43.2403 46.4993C44.8274 48.5084 45.0541 48.6992 45.6095 48.4523C45.8136 48.3625 46.5845 47.1054 48.4209 43.884C49.8153 41.4371 51.1076 39.2596 51.289 39.0576C51.8331 38.4403 52.3999 38.2158 53.2955 38.2719C54.3044 38.328 54.9052 38.7097 55.3586 39.5964C55.6307 40.1239 55.6761 40.3035 55.6307 40.8535C55.5854 41.4147 55.404 41.7851 54.089 44.0973C53.2728 45.534 52.604 46.836 52.604 46.9819C52.604 47.3187 53.0914 47.7901 53.4315 47.7901C53.5902 47.7901 53.8169 47.7003 53.9416 47.588C54.1797 47.386 56.5036 43.3789 57.0137 42.2902C57.4105 41.4484 57.4218 40.0678 57.0477 39.1249C56.1749 36.9587 53.5109 35.9373 51.323 36.9362C50.3254 37.3852 49.8379 37.9688 48.4096 40.4719L47.1059 42.7616L47.0492 23.6916C46.9926 2.93793 47.0379 4.53178 46.3917 3.27467C45.6889 1.91653 44.2946 0.872673 42.7528 0.547173C42.0046 0.39003 15.9768 0.401257 15.1379 0.558395ZM43.1043 2.4104C43.8524 2.74713 44.612 3.48793 44.9747 4.22873L45.2921 4.85729V25.4426C45.2921 39.0688 45.2581 46.0391 45.1788 46.0615C45.1221 46.084 44.6573 45.5677 44.1585 44.9167C43.1269 43.5698 42.7302 43.1881 41.9593 42.7953C40.3269 41.9759 38.1504 42.38 36.9714 43.7157L36.5293 44.1983H35.5544C34.4208 44.1983 34.126 44.3667 34.126 45.0289C34.126 45.5789 34.5455 45.882 35.305 45.882H35.8831L35.8945 46.5891C35.9058 47.835 36.3026 48.6094 38.241 51.0227C38.3317 51.1349 35.1463 51.1574 21.8149 51.1349L5.27549 51.1012L4.64066 50.8094C3.77911 50.4053 3.13295 49.7992 2.75886 49.0472L2.44145 48.4074L2.40744 32.5812C2.38477 21.009 2.40744 16.6315 2.50946 16.2948C2.67951 15.6775 3.1783 15.0938 3.77911 14.802C4.23256 14.5775 4.45928 14.5663 7.04393 14.5663C8.57431 14.5663 10.1274 14.5101 10.5015 14.4428C12.6553 14.05 14.4464 12.2765 14.8432 10.1439C14.9112 9.77351 14.9679 8.23579 14.9679 6.72051C14.9679 4.15016 14.9792 3.9369 15.206 3.48793C15.4667 2.94916 16.0108 2.46652 16.5776 2.25326C16.861 2.15224 20.0918 2.12979 29.7616 2.14101L42.5715 2.16346L43.1043 2.4104ZM13.4262 3.30834C13.3808 3.42058 13.3015 4.98075 13.2675 6.76541L13.2108 10.0204L12.8367 10.7725C12.4173 11.6255 11.9071 12.1194 11.0002 12.5347C10.3881 12.8265 10.3314 12.8265 7.08927 12.8826C5.28682 12.9163 3.69976 12.9949 3.57506 13.0398C3.45036 13.0959 5.61557 10.8847 8.39293 8.12355C11.1703 5.3736 13.4602 3.11753 13.4829 3.11753C13.5055 3.11753 13.4829 3.20732 13.4262 3.30834Z" fill="black"/>
<path d="M37.2207 4.5206C37.0846 4.61039 36.9486 4.8461 36.9032 5.02569C36.8579 5.23895 36.7105 5.42976 36.5292 5.51956C35.8603 5.86751 35.3729 6.68688 35.3729 7.46136C35.3729 7.944 35.6903 8.69602 36.0077 8.97663C36.2798 9.21234 37.4927 9.81845 37.8895 9.90824C38.3996 10.0317 38.6944 10.3909 38.615 10.795C38.4676 11.547 37.5607 11.7602 36.5745 11.2888C36.1437 11.0868 36.0304 11.0643 35.7356 11.1878C35.3049 11.3674 35.0895 11.8276 35.2482 12.2317C35.3615 12.5347 36.2117 13.1072 36.5518 13.1072C36.6539 13.1072 36.7899 13.2418 36.8579 13.4102C37.0506 13.9041 37.3 14.1173 37.7195 14.1173C38.1729 14.1173 38.547 13.7806 38.547 13.3878C38.547 13.2194 38.6263 13.0735 38.751 13.0286C39.828 12.6582 40.5762 11.1654 40.2474 10.0317C40.0207 9.22356 39.5786 8.79704 38.4563 8.33685C37.13 7.78686 37.0053 7.68584 37.1413 7.29299C37.232 7.03483 37.3227 6.98994 37.7308 6.95626C38.0255 6.93382 38.2976 6.98994 38.4563 7.09095C38.9438 7.42768 39.6013 7.25932 39.8053 6.743C39.9753 6.28281 39.7486 5.87873 39.1025 5.54201C38.7624 5.35119 38.547 5.16038 38.547 5.03692C38.547 4.75631 38.0709 4.35224 37.7421 4.35224C37.5948 4.35224 37.3567 4.43081 37.2207 4.5206Z" fill="black"/>
<path d="M5.21854 17.1479C5.00316 17.3611 4.99182 17.5183 4.99182 20.5488C4.99182 23.7253 4.99182 23.7365 5.25255 23.9722C5.62665 24.3202 6.15945 24.2977 6.45419 23.9273C6.68091 23.6355 6.69225 23.4896 6.69225 20.5713C6.69225 17.6529 6.68091 17.507 6.45419 17.2152C6.15945 16.8448 5.55863 16.8111 5.21854 17.1479Z" fill="black"/>
<path d="M8.29104 17.2152C8.06431 17.507 8.05298 17.6529 8.05298 20.5712C8.05298 23.4896 8.06431 23.6355 8.29104 23.9273C8.55177 24.264 9.10724 24.3202 9.48133 24.062C9.67405 23.9161 9.70806 23.714 9.7534 22.1875L9.81008 20.4702L11.0457 22.2437C12.2927 24.0395 12.5648 24.2865 13.0976 24.1518C13.5057 24.0508 13.7437 23.714 13.8004 23.1641C13.8344 22.8834 13.8231 21.4692 13.7777 19.9988C13.6984 17.6193 13.6757 17.3274 13.483 17.1366C13.1543 16.8111 12.5421 16.856 12.2474 17.2264C12.0093 17.5182 11.998 17.6305 12.0433 19.0784C12.066 19.9315 12.066 20.6274 12.032 20.6274C11.998 20.6161 11.4538 19.8753 10.8303 18.9774C10.2068 18.0682 9.60603 17.2376 9.50401 17.1254C9.18659 16.8111 8.57444 16.856 8.29104 17.2152Z" fill="black"/>
<path d="M14.7412 17.1478C14.6166 17.2713 14.5145 17.5182 14.5145 17.6866C14.5145 18.2141 16.5324 23.8038 16.7931 24.0171C17.0878 24.264 17.666 24.2752 17.9947 24.0508C18.3008 23.8375 20.3413 17.8662 20.228 17.5295C20.0012 16.9121 19.2644 16.7101 18.8336 17.1366C18.7089 17.2601 18.3461 18.1692 18.0287 19.1794C17.6433 20.3917 17.4052 20.9529 17.3486 20.8518C17.3032 20.7621 16.9971 19.9202 16.6684 18.9998C16.351 18.0682 15.9996 17.2264 15.9089 17.1142C15.6595 16.856 15.0247 16.8672 14.7412 17.1478Z" fill="black"/>
<path d="M22.6425 17.0917C21.7356 17.4285 20.9307 18.1917 20.4886 19.1346C20.1485 19.8866 20.1372 21.2447 20.4886 21.9967C20.8173 22.7039 21.5769 23.5008 22.2797 23.86C22.7785 24.1294 22.9825 24.163 23.9234 24.163C24.8757 24.163 25.0684 24.1294 25.5785 23.86C27.3129 22.9508 28.1065 20.8294 27.3356 19.1009C27.0069 18.3825 26.2247 17.6081 25.4538 17.2489C24.887 16.9795 24.6376 16.9234 23.9234 16.9346C23.4587 16.9346 22.8805 17.0132 22.6425 17.0917ZM24.8077 18.7642C25.2271 18.9774 25.5785 19.3815 25.7939 19.8641C26.0206 20.4141 26.0093 20.807 25.7486 21.3682C25.2044 22.558 23.5947 22.9171 22.6198 22.0753C21.2141 20.8519 22.0416 18.607 23.9008 18.607C24.2295 18.607 24.6376 18.6744 24.8077 18.7642Z" fill="black"/>
<path d="M28.9115 17.1479C28.6962 17.3611 28.6848 17.5183 28.6848 20.5488C28.6848 23.7253 28.6848 23.7365 28.9455 23.9722C29.3196 24.3202 29.8524 24.2977 30.1472 23.9273C30.3739 23.6355 30.3852 23.4896 30.3852 20.5713C30.3852 17.6529 30.3739 17.507 30.1472 17.2152C29.8524 16.8448 29.2516 16.8111 28.9115 17.1479Z" fill="black"/>
<path d="M33.446 17.1703C32.6071 17.4958 31.7342 18.3825 31.4055 19.2468C30.8953 20.5713 31.2468 22.1539 32.2557 23.1528C33.0152 23.9161 33.6614 24.163 34.863 24.163C36.0306 24.163 36.5634 23.9498 37.1642 23.2651C37.595 22.7824 37.629 22.4008 37.2436 22.0304C36.8695 21.6488 36.4841 21.6825 35.9966 22.109C35.1237 22.861 33.718 22.5804 33.1286 21.5478C32.6071 20.6162 32.9359 19.3703 33.8427 18.8652C34.4322 18.5397 35.2711 18.5284 35.8606 18.8315C36.3934 19.1121 36.6314 19.1121 37.0055 18.8203C37.391 18.5172 37.4136 17.956 37.0509 17.6305C36.5294 17.1591 36.0306 16.9907 35.033 16.9571C34.2508 16.9234 33.9561 16.9683 33.446 17.1703Z" fill="black"/>
<path d="M38.9441 17.204L38.6607 17.4734V20.6049C38.6607 24.511 38.4907 24.2191 40.7126 24.2191C42.1749 24.2191 42.2656 24.2079 42.4923 23.961C42.7984 23.6355 42.8097 23.209 42.5263 22.861C42.3336 22.6253 42.1976 22.5916 41.336 22.5467L40.3611 22.5131V21.9631V21.4131H41.2113C41.9142 21.4131 42.1069 21.3682 42.2883 21.1886C42.6624 20.8182 42.6284 20.3468 42.2203 19.9764C41.9822 19.7743 41.8008 19.7294 41.1433 19.7294H40.3611V19.1682V18.607H41.268C42.0956 18.607 42.2089 18.5733 42.4583 18.3264C42.617 18.1805 42.7417 17.9223 42.7417 17.7652C42.7417 17.6081 42.617 17.3499 42.4583 17.204C42.1976 16.9346 42.1296 16.9234 40.7012 16.9234C39.2729 16.9234 39.2048 16.9346 38.9441 17.204Z" fill="black"/>
<path d="M3.66576 26.6323C3.54106 26.7221 3.39369 26.9241 3.35968 27.0813C3.28033 27.4068 3.52972 27.968 3.80179 28.0802C3.90382 28.1139 5.33217 28.1476 6.97592 28.1476C10.2861 28.1476 10.3541 28.1364 10.5015 27.3956C10.5581 27.1037 10.5128 26.9803 10.2861 26.7558L9.99134 26.4639H6.95324C4.44795 26.4639 3.86981 26.4976 3.66576 26.6323Z" fill="black"/>
<path d="M12.4967 26.7221C12.1453 27.0925 12.1679 27.62 12.542 27.9119L12.8481 28.1476H28.2426C39.4427 28.1476 43.7165 28.1139 43.9205 28.0241C44.4987 27.766 44.544 26.868 43.9999 26.5874C43.8412 26.4976 38.978 26.4639 28.254 26.4639H12.7348L12.4967 26.7221Z" fill="black"/>
<path d="M10.0138 31.1781C9.51497 31.3802 9.3676 32.1434 9.75303 32.5251C9.97975 32.7495 10.1271 32.7495 19.3774 32.7495H28.7864L29.0132 32.4577C29.3192 32.0649 29.3079 31.8179 28.9792 31.4363L28.7071 31.122L19.4795 31.0996C14.2988 31.0884 10.1498 31.122 10.0138 31.1781Z" fill="black"/>
<path d="M34.6931 31.1445C34.1036 31.369 33.9222 32.0985 34.353 32.5251C34.557 32.7271 34.7271 32.7495 36.1668 32.7495C37.6065 32.7495 37.7765 32.7271 37.9805 32.5251C38.2639 32.2445 38.2753 31.7281 37.9919 31.3914C37.7878 31.1332 37.6971 31.122 36.3141 31.0996C35.5206 31.0884 34.7837 31.0996 34.6931 31.1445Z" fill="black"/>
<path d="M9.82126 35.6791C9.43584 35.9822 9.41316 36.5434 9.78726 36.8801L10.048 37.127H19.321C25.6352 37.127 28.662 37.0934 28.8093 37.0036C29.3535 36.723 29.3081 35.825 28.73 35.5669C28.5259 35.4771 25.8506 35.4434 19.287 35.4434C10.184 35.4434 10.1273 35.4434 9.82126 35.6791Z" fill="black"/>
<path d="M34.4206 35.6791C34.0465 35.9709 34.0125 36.5658 34.3526 36.9026C34.5567 37.1046 34.7267 37.127 36.1437 37.127C37.6401 37.127 37.7308 37.1158 37.9575 36.8689C38.2863 36.5209 38.2749 36.0607 37.9235 35.724C37.6628 35.4546 37.5947 35.4434 36.1891 35.4434C34.8741 35.4434 34.6927 35.4659 34.4206 35.6791Z" fill="black"/>
<path d="M9.77599 40.079C9.42457 40.4494 9.44725 40.977 9.82134 41.2688C10.1274 41.5045 10.1841 41.5045 19.3891 41.5045C28.2766 41.5045 28.6734 41.4933 28.9228 41.2912C29.2855 40.9994 29.2855 40.326 28.9228 40.0341C28.6734 39.8321 28.2766 39.8209 19.3437 39.8209H10.0141L9.77599 40.079Z" fill="black"/>
<path d="M34.3752 40.0453C34.0124 40.3821 34.0351 40.9657 34.4205 41.2688C34.6926 41.4821 34.874 41.5045 36.1663 41.5045C37.4586 41.5045 37.64 41.4821 37.9121 41.2688C38.1274 41.1004 38.2068 40.9321 38.2068 40.6627C38.2068 40.3933 38.1274 40.2249 37.9121 40.0566C37.64 39.8433 37.4586 39.8209 36.1209 39.8209C34.7719 39.8209 34.6019 39.8433 34.3752 40.0453Z" fill="black"/>
<path d="M9.75338 44.4228C9.43597 44.7371 9.45864 45.2646 9.81006 45.6014L10.0821 45.882H19.2644C25.8507 45.882 28.5261 45.8483 28.7301 45.7585C29.3083 45.5003 29.3536 44.6024 28.8095 44.3218C28.6621 44.232 25.624 44.1983 19.2871 44.1983C10.1275 44.1983 9.98011 44.1983 9.75338 44.4228Z" fill="black"/>
</svg>
