<svg width="24" height="24" viewBox="0 0 24 24" fill="none" xmlns="http://www.w3.org/2000/svg">
<g clip-path="url(#clip0_552_1203)">
<path d="M1.70156 0.44832C0.904687 0.657133 0.276562 1.26995 0.0703125 2.03711C0.009375 2.27316 0 3.43979 0 12.0011C0 20.4489 0.009375 21.7291 0.0703125 21.956C0.290625 22.7686 0.998437 23.4223 1.82344 23.5766C2.16562 23.6401 21.825 23.6401 22.1766 23.5766C23.0297 23.4223 23.7891 22.6869 23.9531 21.8562C24.0187 21.5202 24.0187 2.48198 23.9531 2.14606C23.8359 1.56047 23.3672 0.934036 22.8375 0.661673C22.2844 0.37569 22.3406 0.38023 18.7406 0.38023H15.4687V3.23552V6.08626L15.3656 6.23606C15.3047 6.31777 15.1969 6.43126 15.1266 6.48119C14.9953 6.57652 14.9625 6.57652 12 6.57652C9.0375 6.57652 9.00469 6.57652 8.87344 6.48119C8.80312 6.43126 8.69531 6.31777 8.63906 6.23606L8.53125 6.08626V3.23552V0.38023L5.24062 0.384769C2.55937 0.384769 1.89844 0.398388 1.70156 0.44832ZM16.3172 11.3429C16.6594 11.5562 16.7391 11.9784 16.5 12.3234C16.425 12.4324 15.1781 13.6716 13.725 15.0743C10.8469 17.8524 10.9406 17.7752 10.5234 17.6708C10.3641 17.63 10.1156 17.4075 8.94375 16.2772C8.175 15.5373 7.51875 14.87 7.47656 14.7883C7.37344 14.5704 7.3875 14.2663 7.51406 14.0892C7.725 13.7806 8.14687 13.6671 8.46094 13.8305C8.54062 13.8668 9.075 14.3616 9.65625 14.9245L10.7109 15.9504L13.1016 13.6353C15.6141 11.2022 15.675 11.1522 16.0078 11.2113C16.0875 11.2249 16.2234 11.2839 16.3172 11.3429Z" fill="black"/>
<path d="M10.0312 2.76342V5.14661H12H13.9688V2.76342V0.38023H12H10.0312V2.76342Z" fill="black"/>
</g>
<defs>
<clipPath id="clip0_552_1203">
<rect width="24" height="23.2418" fill="white" transform="translate(0 0.380234)"/>
</clipPath>
</defs>
</svg>
