<svg width="19" height="18" viewBox="0 0 19 18" fill="none" xmlns="http://www.w3.org/2000/svg">
<path d="M5.75648 2.9793C3.83893 4.06914 2.2684 4.97617 2.27198 4.99024C2.27913 5.03594 4.52224 6.29805 4.5759 6.28399C4.6081 6.28047 5.89601 5.55625 7.43792 4.68086C8.98341 3.80196 10.536 2.92305 10.8902 2.72266C11.2444 2.52227 11.5449 2.34649 11.5592 2.33242C11.5771 2.31485 9.35905 1.02461 9.26603 1C9.2553 1 7.67403 1.88946 5.75648 2.9793Z" fill="#D2C52B"/>
<path d="M8.56494 4.57539C6.65812 5.65821 5.09117 6.55821 5.08402 6.57578C5.08044 6.58985 5.3881 6.78321 5.76732 6.99766L6.46494 7.38789L7.4416 6.83242C7.98181 6.52657 9.54876 5.63711 10.9261 4.85664C12.3035 4.07617 13.4447 3.4293 13.459 3.41524C13.4876 3.39063 12.2176 2.64883 12.096 2.62071C12.0602 2.61016 10.5862 3.4293 8.56494 4.57539Z" fill="#D2C52B"/>
<path d="M10.4967 5.63711C8.58628 6.71992 7.00501 7.61641 6.97997 7.63047C6.94777 7.64805 7.31626 7.87656 8.0568 8.29492C8.67571 8.64648 9.20519 8.9418 9.23023 8.95234C9.25885 8.96289 9.45919 8.87148 9.67384 8.74844C12.1566 7.34922 16.1957 5.05 16.2314 5.01484C16.2708 4.97969 16.0597 4.84961 15.1403 4.3293C14.5142 3.97422 13.9955 3.68242 13.9848 3.67539C13.974 3.67187 12.4035 4.5543 10.4967 5.63711Z" fill="#D2C52B"/>
<path d="M2 9.39883V13.382L5.48808 15.3578C7.40206 16.4477 8.97974 17.3371 8.99047 17.3371C9.00478 17.3371 9.01194 15.5441 9.01194 13.3539V9.37071L7.85282 8.71328C7.21245 8.35118 6.67224 8.05586 6.65435 8.05586C6.62573 8.05586 6.615 8.49883 6.615 9.47266C6.615 10.8051 6.61142 10.8965 6.55061 10.9492C6.51483 10.9844 6.4397 11.009 6.38604 11.009C6.28587 11.009 6.19643 10.9281 5.46304 10.1477L5.29847 9.97188L4.9443 10.0879C4.53288 10.218 4.42198 10.225 4.32539 10.1301C4.25742 10.0633 4.25384 10.0141 4.25384 8.36172V6.66719L3.14838 6.04141C2.54378 5.70039 2.03578 5.41914 2.02147 5.41914C2.01073 5.41914 2 7.21211 2 9.39883ZM3.83527 11.8246C4.35043 12.1129 4.8012 12.3836 4.83697 12.4223C4.86917 12.4609 4.89779 12.5313 4.89779 12.5734C4.89779 12.6578 4.74754 12.802 4.6581 12.802C4.62948 12.802 4.15724 12.5453 3.60273 12.2324C2.54736 11.6313 2.48654 11.582 2.56883 11.4027C2.61176 11.3113 2.74055 11.2516 2.83356 11.2797C2.86934 11.2902 3.3201 11.5328 3.83527 11.8246ZM3.71363 12.9145C4.93714 13.6035 4.86202 13.5543 4.86202 13.6949C4.86202 13.8426 4.78331 13.927 4.65094 13.927C4.54362 13.927 2.66184 12.8793 2.58314 12.7773C2.47581 12.6402 2.58671 12.4152 2.75843 12.4152C2.79779 12.4152 3.23067 12.6402 3.71363 12.9145Z" fill="#D2C52B"/>
<path d="M12.9936 7.39843L9.5127 9.37422V13.3609C9.5127 16.6445 9.51985 17.3406 9.5592 17.3266C9.58425 17.316 10.9652 16.5355 12.6287 15.5934C14.2887 14.6512 15.8449 13.7687 16.0882 13.6316L16.5246 13.3855V9.40234C16.5246 7.21211 16.5139 5.41914 16.4996 5.41914C16.4817 5.42265 14.904 6.31211 12.9936 7.39843Z" fill="#D2C52B"/>
<path d="M4.71875 8.29844C4.71875 9.45157 4.72591 9.63789 4.77241 9.63789C4.80103 9.63789 4.94771 9.59922 5.09797 9.55352C5.24822 9.5043 5.39848 9.47617 5.43068 9.48672C5.46287 9.49727 5.6346 9.65899 5.81705 9.84532L6.14618 10.1828L6.14976 8.96289V7.74649L5.49149 7.37383C5.13016 7.16992 4.80819 6.99414 4.77599 6.98008C4.72233 6.95899 4.71875 7.075 4.71875 8.29844Z" fill="#D2C52B"/>
</svg>
