<svg width="20" height="18" viewBox="0 0 20 18" fill="none" xmlns="http://www.w3.org/2000/svg">
<path d="M19.728 15.5622L15.8332 12.0574C15.6574 11.8992 15.4191 11.8113 15.1691 11.8113H14.5323C15.6105 10.5705 16.2512 9.00967 16.2512 7.31179C16.2512 3.27273 12.6142 0 8.12559 0C3.63698 0 0 3.27273 0 7.31179C0 11.3508 3.63698 14.6236 8.12559 14.6236C10.0125 14.6236 11.747 14.0471 13.126 13.0768V13.6498C13.126 13.8748 13.2236 14.0892 13.3994 14.2474L17.2942 17.7522C17.6614 18.0826 18.2552 18.0826 18.6185 17.7522L19.7241 16.7573C20.0913 16.4269 20.0913 15.8926 19.728 15.5622ZM8.12559 11.8113C5.36367 11.8113 3.12523 9.80061 3.12523 7.31179C3.12523 4.82648 5.35977 2.81223 8.12559 2.81223C10.8875 2.81223 13.126 4.82297 13.126 7.31179C13.126 9.79709 10.8914 11.8113 8.12559 11.8113Z" fill="black"/>
</svg>
