<svg width="24" height="29" viewBox="0 0 24 29" fill="none" xmlns="http://www.w3.org/2000/svg">
<path d="M10.9041 0.278838C8.50124 0.608907 6.65041 1.81729 6.06594 3.44526C5.81429 4.13896 5.87112 5.07322 6.21206 5.75574C6.56112 6.44944 6.90206 6.81308 7.73818 7.3893C8.97207 8.23964 10.2628 8.61447 12 8.61447C13.7371 8.61447 15.0278 8.23964 16.2617 7.3893C17.0897 6.81867 17.4307 6.45504 17.7879 5.75574C18.0314 5.28581 18.0476 5.22427 18.0476 4.42428C18.0395 3.65225 18.0233 3.55155 17.8203 3.13757C17.455 2.42149 17.0816 2.0131 16.2698 1.45366C15.6448 1.02289 15.4094 0.905409 14.76 0.687228C14.3378 0.541775 13.7696 0.385132 13.5017 0.340377C12.8036 0.2173 11.586 0.189328 10.9041 0.278838Z" fill="black"/>
<path d="M8.75298 8.86062C8.63933 8.87181 8.15227 8.94454 7.65709 9.02286C3.6145 9.67181 1.02496 11.0592 0.213196 12.9949C0.0346069 13.4144 0.0264893 13.5207 0.0264893 15.5291V17.627L2.6485 17.6438L5.26238 17.655V15.7081C5.26238 14.2368 5.28674 13.7389 5.36791 13.6662C5.53027 13.5151 11.7728 11.0536 12 11.0536C12.2273 11.0536 18.4698 13.5096 18.6403 13.6662C18.7134 13.7389 18.7377 14.2368 18.7377 15.7081V17.655L21.3597 17.6438L23.9736 17.627V15.5291C23.9736 13.5096 23.9655 13.4144 23.7869 12.9837C23.0888 11.3166 21.0431 10.0522 17.8285 9.31377C17.3009 9.19069 16.4566 9.02845 15.9615 8.96132C15.0604 8.83265 15.0523 8.83265 14.7032 8.93894C13.8996 9.18509 13.1446 9.2802 12 9.2802C10.8717 9.2802 10.1249 9.18509 9.29686 8.94454C9.11016 8.88859 8.86663 8.84943 8.75298 8.86062Z" fill="black"/>
<path d="M9.36178 12.7935C7.98178 13.3473 6.83719 13.8172 6.82907 13.8396C6.80471 13.89 11.8295 15.8872 11.9919 15.8872C12.1299 15.8928 17.1953 13.9012 17.1953 13.8452C17.1953 13.7949 12.1056 11.7809 11.9838 11.7865C11.927 11.7865 10.7499 12.2396 9.36178 12.7935Z" fill="black"/>
<path d="M6.25273 16.5417L6.27709 18.6284L8.83415 19.6466C10.2385 20.2116 11.4156 20.6704 11.4562 20.676C11.4886 20.676 11.513 19.7361 11.513 18.5893V16.5081L9.01274 15.5179C7.64086 14.9753 6.45568 14.5109 6.3745 14.4942C6.24462 14.455 6.2365 14.5669 6.25273 16.5417Z" fill="black"/>
<path d="M15.0685 15.49L12.4952 16.5081L12.4871 18.5893C12.4871 19.7361 12.5114 20.676 12.552 20.676C12.5845 20.676 13.7615 20.2116 15.1659 19.6522L17.723 18.6284L17.7473 16.5473C17.7554 15.4005 17.7392 14.4662 17.7067 14.4662C17.6661 14.4662 16.481 14.9249 15.0685 15.49Z" fill="black"/>
<path d="M3.09491 20.2452C1.69867 20.8046 0.554077 21.2746 0.554077 21.2913C0.554077 21.3249 5.57079 23.3277 5.71691 23.3501C5.83056 23.3669 10.9447 21.3585 10.9447 21.2913C10.9447 21.241 5.85491 19.2214 5.73315 19.227C5.67632 19.2326 4.48303 19.6913 3.09491 20.2452Z" fill="black"/>
<path d="M15.5961 20.2452C14.1999 20.8046 13.0553 21.2746 13.0553 21.2913C13.0553 21.3529 18.1857 23.3669 18.2912 23.3501C18.4373 23.3221 23.4459 21.3249 23.4459 21.2913C23.4459 21.2466 18.4048 19.2494 18.2587 19.2382C18.1857 19.2326 16.9842 19.6858 15.5961 20.2452Z" fill="black"/>
<path d="M0.00211165 23.9878L0.0264646 26.0745L2.58353 27.0927C3.98789 27.6521 5.16495 28.1165 5.20554 28.1165C5.23801 28.1165 5.26236 27.1766 5.26236 26.0298L5.25424 23.9487L2.67282 22.9249C1.25223 22.3655 0.067053 21.9067 0.0345823 21.9067C0.0102293 21.9067 -0.00600602 22.8466 0.00211165 23.9878Z" fill="black"/>
<path d="M8.83415 22.9362L6.27709 23.9543L6.25273 26.0411C6.2365 28.0159 6.24462 28.1278 6.3745 28.0942C6.45568 28.0718 7.64086 27.6075 9.01274 27.0648L11.513 26.0746V23.9879C11.513 22.8467 11.4886 21.9068 11.4562 21.9068C11.4156 21.9124 10.2385 22.3711 8.83415 22.9362Z" fill="black"/>
<path d="M12.4871 23.9879V26.0746L14.9954 27.0648C16.3754 27.6131 17.5606 28.0774 17.6337 28.0942C17.7554 28.1278 17.7635 27.9543 17.7473 26.0411L17.723 23.9544L15.1659 22.9306C13.7615 22.3711 12.5845 21.9124 12.552 21.9068C12.5114 21.9068 12.4871 22.8467 12.4871 23.9879Z" fill="black"/>
<path d="M21.3191 22.9305L18.7458 23.9487L18.7377 26.0298C18.7377 27.1766 18.762 28.1165 18.8026 28.1165C18.8351 28.1165 20.0121 27.6577 21.4165 27.0927L23.9736 26.0745L23.9979 23.9878C24.006 22.8466 23.9898 21.9067 23.9573 21.9067C23.9167 21.9067 22.7316 22.3711 21.3191 22.9305Z" fill="black"/>
</svg>
