<svg width="17" height="18" viewBox="0 0 17 18" fill="none" xmlns="http://www.w3.org/2000/svg">
<path d="M8.50879 0.0284233C8.38926 0.0811577 8.31953 0.158503 8.17012 0.390533C7.89453 0.815924 7.35332 1.34678 6.83867 1.69131C6.73242 1.76163 6.48672 1.90225 6.29082 2.00772C5.39766 2.47882 4.48125 2.72842 3.38555 2.79522C2.89414 2.82686 2.83438 2.84796 2.68496 3.06241C2.61523 3.15733 2.61523 3.18194 2.61523 6.38116C2.61523 9.35889 2.61855 9.63311 2.675 9.97413C2.91074 11.3769 3.56484 12.646 4.65723 13.8097C5.68652 14.9065 6.86191 15.6905 8.19336 16.1651C8.63164 16.3233 8.80762 16.3198 9.27246 16.1511C10.5707 15.68 11.7428 14.8925 12.7588 13.8097C13.8479 12.6495 14.5053 11.3769 14.741 9.97413C14.7975 9.63311 14.8008 9.35889 14.8008 6.38116C14.8008 3.18194 14.8008 3.15733 14.7311 3.06241C14.5816 2.84796 14.5219 2.82686 14.0305 2.79522C11.9818 2.67217 10.1424 1.74405 9.23926 0.379986C9.15625 0.256939 9.05 0.123346 9.0002 0.0846729C8.89727 0.0038147 8.63164 -0.0278263 8.50879 0.0284233ZM9.28906 4.26124C11.4771 4.63741 12.8684 6.92257 12.2906 9.20069C12.191 9.59796 11.8689 10.2589 11.61 10.5999C10.1225 12.5651 7.29023 12.5687 5.80938 10.6034C4.89297 9.39405 4.74023 7.75577 5.4043 6.35303C6.11484 4.85186 7.71523 3.99053 9.28906 4.26124Z" fill="#D2C52B"/>
<path d="M10.1024 5.93116C10.056 5.95225 9.39854 6.62374 8.64151 7.42882L7.26358 8.88428L7.14073 8.62413C6.97803 8.27608 6.8419 8.16358 6.5796 8.16358C6.28409 8.16358 6.08819 8.35342 6.06163 8.6628C6.04503 8.821 6.06827 8.87725 6.36046 9.50303C6.69249 10.2132 6.78546 10.3398 6.99796 10.3819C7.29678 10.4382 7.22706 10.5015 9.06651 8.55733C10.2884 7.26358 10.7765 6.72569 10.803 6.6378C10.8761 6.40225 10.7964 6.14913 10.5939 5.99092C10.4909 5.91007 10.2253 5.87842 10.1024 5.93116Z" fill="#D2C52B"/>
</svg>
